<?xml version="1.0" encoding="UTF-8"?>
<svg id="Layer_1" data-name="Layer 1" xmlns="http://www.w3.org/2000/svg" viewBox="0 0 500 511.93">
  <defs>
    <style>
      .cls-1, .cls-2 {
        fill: #231f20;
      }

      .cls-1, .cls-3, .cls-4, .cls-5 {
        stroke-miterlimit: 10;
        stroke-width: 2px;
      }

      .cls-1, .cls-5 {
        stroke: #876226;
      }

      .cls-2 {
        font-family: AcademyEngravedLetPlain, 'Academy Engraved LET';
        font-size: 48px;
      }

      .cls-3 {
        stroke: #231f20;
      }

      .cls-3, .cls-4, .cls-5 {
        fill: none;
      }

      .cls-4 {
        stroke: #876112;
      }
    </style>
  </defs>
  <text class="cls-2" transform="translate(134.11 84.15) scale(.76 1)"><tspan x="0" y="0">John Philbrick</tspan></text>
  <text class="cls-2" transform="translate(170.98 451.7) scale(.76 1)"><tspan x="0" y="0">Antiques</tspan></text>
  <path class="cls-5" d="m159.66,249.39v-125.44h8.55v125.59c-1.74.6-2.03,2.52-2.03,4.78s.29,4.19,2.03,4.79l-.05,125.76h-8.55l.05-125.61"/>
  <path class="cls-5" d="m168.21,249.54c.36-.12.38-.1.78-.1"/>
  <path class="cls-5" d="m168.99,259.3c-.4,0-.42-.07-.78-.19"/>
  <path class="cls-5" d="m158.68,249.35c.15,0,.31.01.46.04,2.07.26,3,2.38,3,4.94s-.93,4.67-3,4.93c-.15.03-.31.04-.46.04"/>
  <path class="cls-5" d="m323.68,249.2v-125.44h8.55v125.59c-1.74.6-2.03,2.52-2.03,4.78s.29,4.19,2.03,4.79l.75,125.95h-8.55l-.75-125.8"/>
  <path class="cls-3" d="m332.23,249.35c.36-.12.38-.1.78-.1"/>
  <path class="cls-3" d="m333.01,259.11c-.4,0-.42-.07-.78-.19"/>
  <path class="cls-5" d="m322.7,249.16c.15,0,.31.01.46.04,2.07.26,3,2.38,3,4.94s-.93,4.67-3,4.93c-.15.03-.31.04-.46.04"/>
  <path class="cls-5" d="m159,123.94s-3.88-2.81-3.88-3.85v-9.53s-5.59-9.87,89.93-9.87,91.18,9.87,91.18,9.87v9.53c0,1.66-3.88,3.85-3.88,3.85"/>
  <path class="cls-5" d="m155.12,120.09s-5.77-8.77,89.93-8.27,91.18,8.27,91.18,8.27"/>
  <line class="cls-5" x1="289.4" y1="122.86" x2="323.68" y2="123.94"/>
  <line class="cls-5" x1="168.21" y1="123.94" x2="202.4" y2="123.47"/>
  <path class="cls-4" d="m158.99,384.87s-3.88,2.81-3.88,3.85v9.53s-5.59,9.87,89.94,9.87,91.18-9.87,91.18-9.87v-9.53c0-1.66-3.88-3.85-3.88-3.85"/>
  <path class="cls-5" d="m155.12,388.72s-5.77,8.77,89.94,8.27,91.18-8.27,91.18-8.27"/>
  <path class="cls-1" d="m290.63,384.87c8.81,0,33.8,0,33.8,0"/>
  <path class="cls-1" d="m168.16,384.87s24.82,0,33.64,0"/>
  <path class="cls-3" d="m258.07,272.61c-.09.06.09-.05,0,0,19.03,9.35,54.89,30.5,54.89,54.87,0,33.09.54,65.58-67.01,65.38-67.54-.18-66.12-32.3-66.12-65.38,0-24.33,35.33-45.71,54.38-55.08-.22-.14.22.15,0,0"/>
  <path class="cls-3" d="m234.67,234.35c.06-.04-.06.04,0,0-.57-.28-1.16-.56-1.76-.86-.33-.18-.67-.36-1.02-.52-19.57-9.97-52.16-30.05-52.16-53.2,0-33.08-.88-63.64,66.67-63.82,67.55-.18,66.46,30.74,66.46,63.82,0,24.28-35.85,45.18-54.94,54.59"/>
  <path class="cls-3" d="m231.89,232.97c.35.16.69.34,1.02.52.54.31,1.07.63,1.58.98"/>
</svg>